<?xml version="1.0" encoding="utf-8"?>
<!-- Generator: Adobe Illustrator 17.1.0, SVG Export Plug-In . SVG Version: 6.00 Build 0)  -->
<!DOCTYPE svg PUBLIC "-//W3C//DTD SVG 1.1//EN" "http://www.w3.org/Graphics/SVG/1.1/DTD/svg11.dtd">
<svg version="1.1" id="Layer_1" xmlns="http://www.w3.org/2000/svg" xmlns:xlink="http://www.w3.org/1999/xlink" x="0px" y="0px"
	 viewBox="0 0 1190.6 841.9" enable-background="new 0 0 1190.6 841.9" xml:space="preserve">
<rect x="409.2" y="-3416" fill="#FFFFFF" width="375" height="7673.5"/>
<polygon fill="none" stroke="#E6332A" stroke-width="13" stroke-linecap="round" stroke-linejoin="round" stroke-miterlimit="10" points="
	488.9,-1501.8 436.9,-1501.8 462.9,-1449.8 "/>
<polygon fill="none" stroke="#36A9E1" stroke-width="13" stroke-linecap="round" stroke-linejoin="round" stroke-miterlimit="10" points="
	628.4,-2873.5 576.5,-2873.5 602.4,-2821.5 "/>
<g>
	
		<line fill="none" stroke="#FFE400" stroke-width="13" stroke-linecap="round" stroke-linejoin="round" stroke-miterlimit="10" x1="462.5" y1="-1501.2" x2="462.5" y2="-2270.8"/>
	
		<circle fill="none" stroke="#95C11F" stroke-width="13" stroke-linecap="round" stroke-linejoin="round" stroke-miterlimit="10" cx="463.2" cy="-2291.8" r="22.4"/>
	<path fill="none" stroke="#F9B104" stroke-width="13" stroke-linecap="round" stroke-linejoin="round" stroke-miterlimit="10" d="
		M462.9-2314.8c0-63.9,51.1-116,114.7-117.4"/>
	
		<line fill="none" stroke="#DEDC00" stroke-width="13" stroke-linecap="round" stroke-linejoin="round" stroke-miterlimit="10" x1="602.4" y1="-2821.5" x2="602.4" y2="-2459.6"/>
	
		<rect x="577.8" y="-2460.6" fill="none" stroke="#B94191" stroke-width="13" stroke-linecap="round" stroke-linejoin="round" stroke-miterlimit="10" width="51.7" height="51.7"/>
</g>
<g>
	
		<line fill="none" stroke="#009FE3" stroke-width="13" stroke-linecap="round" stroke-linejoin="round" stroke-miterlimit="10" x1="464" y1="-1453.2" x2="464" y2="-348.2"/>
	
		<rect x="439.2" y="-347.3" fill="none" stroke="#B94191" stroke-width="13" stroke-linecap="round" stroke-linejoin="round" stroke-miterlimit="10" width="51.7" height="51.7"/>
</g>
<g>
	<g>
		<path fill="none" stroke="#009FE3" stroke-width="13" stroke-linecap="round" stroke-linejoin="round" stroke-miterlimit="10" d="
			M464.2-357.4c0-73.7,59.7-133.4,133.4-133.4S731-431.1,731-357.4v633.7"/>
		<path fill="none" stroke="#FFE400" stroke-width="13" stroke-linecap="round" stroke-linejoin="round" stroke-miterlimit="10" d="
			M730.8,329.9c0,98.6-79.9,178.5-178.5,178.5"/>
		<path fill="none" stroke="#F9B104" stroke-width="13" stroke-linecap="round" stroke-linejoin="round" stroke-miterlimit="10" d="
			M730.8,686.9c0-98.6-79.9-178.5-178.5-178.5"/>
		
			<rect x="497.6" y="484.6" fill="none" stroke="#B94191" stroke-width="13" stroke-linecap="round" stroke-linejoin="round" stroke-miterlimit="10" width="51.7" height="51.7"/>
		
			<polygon fill="none" stroke="#95C11F" stroke-width="13" stroke-linecap="round" stroke-linejoin="round" stroke-miterlimit="10" points="
			756.8,278 704.8,278 730.8,329.9 		"/>
	</g>
	
		<circle fill="none" stroke="#E6332A" stroke-width="13" stroke-linecap="round" stroke-linejoin="round" stroke-miterlimit="10" cx="730.8" cy="716" r="26"/>
</g>
<g>
	
		<line fill="none" stroke="#F9B104" stroke-width="13" stroke-linecap="round" stroke-linejoin="round" stroke-miterlimit="10" x1="729.8" y1="741.7" x2="729.8" y2="2046.9"/>
	<path fill="none" stroke="#FFE400" stroke-width="13" stroke-linecap="round" stroke-linejoin="round" stroke-miterlimit="10" d="
		M729.8,2021.6c0-76.5-62-138.4-138.4-138.4s-138.4,62-138.4,138.4v804.9"/>
	
		<polygon fill="none" stroke="#B94191" stroke-width="13" stroke-linecap="round" stroke-linejoin="round" stroke-miterlimit="10" points="
		756.8,2047.4 704.8,2047.4 730.8,2099.4 	"/>
	
		<rect x="428.9" y="2824" fill="none" stroke="#009FE3" stroke-width="13" stroke-linecap="round" stroke-linejoin="round" stroke-miterlimit="10" width="51.7" height="51.7"/>
</g>
<g>
	
		<circle fill="none" stroke="#E6332A" stroke-width="13" stroke-linecap="round" stroke-linejoin="round" stroke-miterlimit="10" cx="454.2" cy="3740" r="26"/>
	
		<line fill="none" stroke="#FFE400" stroke-width="13" stroke-linecap="round" stroke-linejoin="round" stroke-miterlimit="10" x1="454.4" y1="2876.7" x2="454.4" y2="3713.7"/>
</g>
</svg>
