<?xml version="1.0" encoding="utf-8"?>
<!-- Generator: Adobe Illustrator 17.1.0, SVG Export Plug-In . SVG Version: 6.00 Build 0)  -->
<!DOCTYPE svg PUBLIC "-//W3C//DTD SVG 1.1//EN" "http://www.w3.org/Graphics/SVG/1.1/DTD/svg11.dtd">
<svg version="1.1" id="Layer_2" xmlns="http://www.w3.org/2000/svg" xmlns:xlink="http://www.w3.org/1999/xlink" x="0px" y="0px"
	 viewBox="0 0 518 8307" enable-background="new 0 0 518 8307" xml:space="preserve">
<polygon fill="none" stroke="#E6332A" stroke-width="13" stroke-linecap="round" stroke-linejoin="round" stroke-miterlimit="10" points="
	62,1995.1 10,1995.1 36,2047.1 "/>
<line fill="none" stroke="#D6DE23" stroke-width="13" stroke-linecap="round" stroke-linejoin="round" stroke-miterlimit="10" x1="225.7" y1="78.1" x2="225.7" y2="846.7"/>
<path fill="none" stroke="#009FE3" stroke-width="13" stroke-linecap="round" stroke-linejoin="round" stroke-miterlimit="10" d="
	M37.5,3243.3c0-106.6,86.4-192.9,192.9-192.9s192.9,86.4,192.9,192.9V4259"/>
<path fill="none" stroke="#F9B104" stroke-width="13" stroke-linecap="round" stroke-linejoin="round" stroke-miterlimit="10" d="
	M36.7,1047.6c0-93.8,70-170.1,163.3-172.3"/>
<path fill="none" stroke="#EC1C24" stroke-width="16.8" stroke-linecap="round" stroke-linejoin="round" stroke-miterlimit="10" d="
	M323.6,4453.4"/>
<path fill="none" stroke="#FFE400" stroke-width="13" stroke-linecap="round" stroke-linejoin="round" stroke-miterlimit="10" d="
	M423.3,4309.8c0,113.2-91.8,181.3-204.9,181.3"/>
<line fill="none" stroke="#F9B104" stroke-width="13" stroke-linecap="round" stroke-linejoin="round" stroke-miterlimit="10" x1="424.9" y1="4744.2" x2="424.9" y2="5452.3"/>
<path fill="none" stroke="#FFE400" stroke-width="13" stroke-linecap="round" stroke-linejoin="round" stroke-miterlimit="10" d="
	M424.9,5452.1c0-102.6-83.1-191.7-185.7-191.7s-185.7,83.1-185.7,185.7V6571"/>
<polyline fill="none" stroke="#B94191" stroke-width="13" stroke-linecap="round" stroke-linejoin="round" stroke-miterlimit="10" points="
	244,898.7 251.5,898.5 251.5,846.9 199.8,847.9 199.8,899.5 244,898.7 "/>
<rect x="166.9" y="4464.9" fill="none" stroke="#B94191" stroke-width="13" stroke-linecap="round" stroke-linejoin="round" stroke-miterlimit="10" width="50.2" height="50.2"/>
<polygon fill="none" stroke="#26A9E0" stroke-width="13" stroke-linecap="round" stroke-linejoin="round" stroke-miterlimit="10" points="
	251.7,26.1 199.7,26.1 225.7,78.1 "/>
<polygon fill="none" stroke="#8BC53F" stroke-width="13" stroke-linecap="round" stroke-linejoin="round" stroke-miterlimit="10" points="
	448.6,4259.3 398.1,4259.3 423.3,4309.8 "/>
<polygon fill="none" stroke="#B94191" stroke-width="13" stroke-linecap="round" stroke-linejoin="round" stroke-miterlimit="10" points="
	447.6,5452.1 406.3,5452.1 426.9,5493.3 "/>
<circle fill="none" stroke="#8BC53F" stroke-width="13" stroke-linecap="round" stroke-linejoin="round" stroke-miterlimit="10" cx="37.5" cy="1072.5" r="26"/>
<circle fill="none" stroke="#E6332A" stroke-width="13" stroke-linecap="round" stroke-linejoin="round" stroke-miterlimit="10" cx="425.3" cy="4718.7" r="25.2"/>
<path fill="none" stroke="#009FE3" stroke-width="13" stroke-linecap="round" stroke-linejoin="round" stroke-miterlimit="10" d="
	M36.6,2047.9v1196.3"/>
<path fill="#009FE3" d="M79.5,6629.4H27.8c-3.6,0-6.5-2.9-6.5-6.5v-51.7c0-3.6,2.9-6.5,6.5-6.5h51.7c3.6,0,6.5,2.9,6.5,6.5v51.7
	C86,6626.5,83,6629.4,79.5,6629.4z M34.3,6616.4H73v-38.7H34.3V6616.4z"/>
<path fill="none" stroke="#FFE400" stroke-width="13" stroke-linecap="round" stroke-linejoin="round" stroke-miterlimit="10" d="
	M53.4,6623.7v1526"/>
<rect x="10.9" y="3244.8" fill="none" stroke="#B94191" stroke-width="13" stroke-linecap="round" stroke-linejoin="round" stroke-miterlimit="10" width="50.2" height="50.2"/>
<line fill="none" stroke="#FFE400" stroke-width="13" stroke-linecap="round" stroke-linejoin="round" stroke-miterlimit="10" x1="37.5" y1="1992.1" x2="37.5" y2="1099.5"/>
<path fill="none" stroke="#F9B104" stroke-width="13" stroke-linecap="round" stroke-linejoin="round" stroke-miterlimit="10" d="
	M423.8,4693.4c0-111.8-90.6-202.4-202.4-202.4"/>
<circle fill="none" stroke="#E6332A" stroke-width="13" stroke-linecap="round" stroke-linejoin="round" stroke-miterlimit="10" cx="53.4" cy="8174.7" r="26"/>
</svg>
