<?xml version="1.0" encoding="utf-8"?>
<!-- Generator: Adobe Illustrator 17.1.0, SVG Export Plug-In . SVG Version: 6.00 Build 0)  -->
<!DOCTYPE svg PUBLIC "-//W3C//DTD SVG 1.1//EN" "http://www.w3.org/Graphics/SVG/1.1/DTD/svg11.dtd">
<svg version="1.1" id="Layer_2" xmlns="http://www.w3.org/2000/svg" xmlns:xlink="http://www.w3.org/1999/xlink" x="0px" y="0px"
	 viewBox="0 0 1101.9 1520" enable-background="new 0 0 1101.9 1520" xml:space="preserve">
<path fill="#FFE400" d="M164.1,2020.5c-3.6,0-6.5-2.9-6.5-6.5V840c0-65,25.3-126.1,71.3-172c46-46,107.1-71.3,172-71.3
	c65,0,126.1,25.3,172,71.3c46,46,71.3,107.1,71.3,172c0,3.6-2.9,6.5-6.5,6.5s-6.5-2.9-6.5-6.5c0-61.5-24-119.4-67.5-162.9
	c-43.5-43.5-101.3-67.5-162.9-67.5s-119.4,24-162.9,67.5c-43.5,43.5-67.5,101.3-67.5,162.9v1174
	C170.6,2017.6,167.7,2020.5,164.1,2020.5z"/>
<path fill="#B94191" d="M637.7,901.9c-2.5,0-4.7-1.4-5.8-3.6l-26-52c-1-2-0.9-4.4,0.3-6.3c1.2-1.9,3.3-3.1,5.5-3.1h52
	c2.3,0,4.3,1.2,5.5,3.1c1.2,1.9,1.3,4.3,0.3,6.3l-26,52C642.4,900.5,640.2,901.9,637.7,901.9z M622.2,849.9l15.5,30.9l15.5-30.9
	H622.2z"/>
<path fill="#F9B104" d="M637.7,846.5c-3.6,0-6.5-2.9-6.5-6.5V-535.3c0-3.6,2.9-6.5,6.5-6.5s6.5,2.9,6.5,6.5V840
	C644.2,843.6,641.3,846.5,637.7,846.5z"/>
</svg>
