<?xml version="1.0" encoding="utf-8"?>
<!-- Generator: Adobe Illustrator 17.1.0, SVG Export Plug-In . SVG Version: 6.00 Build 0)  -->
<!DOCTYPE svg PUBLIC "-//W3C//DTD SVG 1.1//EN" "http://www.w3.org/Graphics/SVG/1.1/DTD/svg11.dtd">
<svg version="1.1" id="Layer_1" xmlns="http://www.w3.org/2000/svg" xmlns:xlink="http://www.w3.org/1999/xlink" x="0px" y="0px"
	 viewBox="0 0 400 200" enable-background="new 0 0 400 200" xml:space="preserve">
<path fill="#E6007E" d="M114.3,76.5H88.2c-1.8,0-3.3-1.5-3.3-3.3V47.1c0-1.8,1.5-3.3,3.3-3.3h26.1c1.8,0,3.3,1.5,3.3,3.3v26.1
	C117.5,75.1,116.1,76.5,114.3,76.5z M91.4,70H111V50.4H91.4V70z"/>
<path fill="#36A9E1" d="M38.7,153.2c-9,0-16.3-7.3-16.3-16.3c0-9,7.3-16.3,16.3-16.3S55,127.9,55,136.9
	C55,145.9,47.7,153.2,38.7,153.2z M38.7,127.1c-5.4,0-9.8,4.4-9.8,9.8c0,5.4,4.4,9.8,9.8,9.8s9.8-4.4,9.8-9.8
	C48.5,131.5,44.1,127.1,38.7,127.1z"/>
<path fill="#F9B233" d="M164.6,153.2c-1.2,0-2.4-0.7-2.9-1.8l-13-26.1c-0.5-1-0.5-2.2,0.1-3.2c0.6-1,1.7-1.6,2.8-1.6h26.1
	c1.1,0,2.2,0.6,2.8,1.6c0.6,1,0.7,2.2,0.1,3.2l-13,26.1C167,152.5,165.9,153.2,164.6,153.2z M156.9,127.1l7.7,15.5l7.7-15.5H156.9z"
	/>
<path fill="#36A9E1" d="M164.5,125.6c-1.8,0-3.3-1.5-3.3-3.3c0-13.5-4.7-26.6-13.1-37.1c-8.4-10.3-20-17.5-32.9-20.4
	c-1.8-0.4-2.9-2.1-2.5-3.9c0.4-1.8,2.1-2.9,3.9-2.5c14.3,3.2,27.3,11.2,36.6,22.6c9.4,11.6,14.6,26.2,14.6,41.2
	C167.8,124.1,166.3,125.6,164.5,125.6z"/>
<path fill="#DEDC00" d="M38.7,125.6c-1.8,0-3.3-1.5-3.3-3.3c0-14.8,5.1-29.4,14.4-40.9C59,70,71.8,61.9,85.9,58.6
	c1.8-0.4,3.5,0.7,3.9,2.5c0.4,1.8-0.7,3.5-2.5,3.9c-12.7,3-24.2,10.2-32.5,20.5C46.5,96,42,108.8,42,122.3
	C42,124.1,40.5,125.6,38.7,125.6z"/>
<path fill="#E6007E" d="M265.9,153.3h-26.1c-1.8,0-3.3-1.5-3.3-3.3v-26.1c0-1.8,1.5-3.3,3.3-3.3h26.1c1.8,0,3.3,1.5,3.3,3.3V150
	C269.2,151.8,267.7,153.3,265.9,153.3z M243.1,146.7h19.5v-19.5h-19.5V146.7z"/>
<path fill="#36A9E1" d="M374.1,153.2c-9,0-16.3-7.3-16.3-16.3c0-9,7.3-16.3,16.3-16.3c9,0,16.3,7.3,16.3,16.3
	C390.4,145.9,383.1,153.2,374.1,153.2z M374.1,127.1c-5.4,0-9.8,4.4-9.8,9.8c0,5.4,4.4,9.8,9.8,9.8c5.4,0,9.8-4.4,9.8-9.8
	C383.8,131.5,379.5,127.1,374.1,127.1z"/>
<path fill="#F9B233" d="M313.4,84.2c-1.2,0-2.4-0.7-2.9-1.8l-13-26.1c-0.5-1-0.5-2.2,0.1-3.2c0.6-1,1.7-1.6,2.8-1.6h26.1
	c1.1,0,2.2,0.6,2.8,1.6c0.6,1,0.7,2.2,0.1,3.2l-13,26.1C315.7,83.5,314.6,84.2,313.4,84.2z M305.6,58.1l7.7,15.5l7.7-15.5H305.6z"/>
<path fill="#36A9E1" d="M266.8,140.4c-1.8,0-3.3-1.4-3.3-3.2c0-1.8,1.4-3.3,3.2-3.3c13.9-0.2,25.3-6.1,33-17.2
	c6.6-9.4,10.3-22.4,10.3-35.8c0-1.8,1.5-3.3,3.3-3.3c1.8,0,3.3,1.5,3.3,3.3c0,14.7-4.2,29.1-11.5,39.6
	C296.2,133.3,282.9,140.2,266.8,140.4C266.8,140.4,266.8,140.4,266.8,140.4z"/>
<path fill="#DEDC00" d="M360.1,140.5C360.1,140.5,360.1,140.5,360.1,140.5c-16.1-0.2-29.3-7.1-38.3-19.9
	c-7.4-10.5-11.7-25-11.7-39.6c0-1.8,1.5-3.3,3.3-3.3c1.8,0,3.3,1.5,3.3,3.3c0,13.3,3.8,26.4,10.5,35.8c7.8,11.1,19.2,17,33,17.1
	c1.8,0,3.3,1.5,3.2,3.3C363.4,139,361.9,140.5,360.1,140.5z"/>
</svg>
