<?xml version="1.0" encoding="utf-8"?>
<!-- Generator: Adobe Illustrator 17.1.0, SVG Export Plug-In . SVG Version: 6.00 Build 0)  -->
<!DOCTYPE svg PUBLIC "-//W3C//DTD SVG 1.1//EN" "http://www.w3.org/Graphics/SVG/1.1/DTD/svg11.dtd">
<svg version="1.1" id="Layer_1" xmlns="http://www.w3.org/2000/svg" xmlns:xlink="http://www.w3.org/1999/xlink" x="0px" y="0px"
	 viewBox="0 0 65 539.9" enable-background="new 0 0 65 539.9" xml:space="preserve">
<path fill="#DEDC00" d="M32.5,539.9c-3.6,0-6.5-2.9-6.5-6.5V58.5c0-3.6,2.9-6.5,6.5-6.5s6.5,2.9,6.5,6.5v474.9
	C39,537,36.1,539.9,32.5,539.9z"/>
<path fill="#36A9E1" d="M32.5,65c-2.5,0-4.7-1.4-5.8-3.6l-26-52c-1-2-0.9-4.4,0.3-6.3C2.2,1.2,4.2,0,6.5,0h52c2.3,0,4.3,1.2,5.5,3.1
	c1.2,1.9,1.3,4.3,0.3,6.3l-26,52C37.2,63.6,34.9,65,32.5,65z M17,13l15.5,30.9L48,13H17z"/>
</svg>
