<?xml version="1.0" encoding="utf-8"?>
<!-- Generator: Adobe Illustrator 17.1.0, SVG Export Plug-In . SVG Version: 6.00 Build 0)  -->
<!DOCTYPE svg PUBLIC "-//W3C//DTD SVG 1.1//EN" "http://www.w3.org/Graphics/SVG/1.1/DTD/svg11.dtd">
<svg version="1.1" xmlns="http://www.w3.org/2000/svg" xmlns:xlink="http://www.w3.org/1999/xlink" x="0px" y="0px"
	 viewBox="0 0 960 16383" enable-background="new 0 0 960 16383" xml:space="preserve">
<g id="Layer_1" display="none">
	<path display="inline" fill="#DEDC00" d="M474.9,7924.4c-33.3,0-60.2-26.8-60.2-60.2V1709c0-33.3,26.8-60.2,60.2-60.2
		s60.2,26.8,60.2,60.2v6156.2C535.1,7897.6,508.2,7924.4,474.9,7924.4z"/>
	<path display="inline" fill="#F9B104" d="M482.3,21192.2c-33.3,0-60.2-26.8-60.2-60.2V8400.3c0-33.3,26.8-60.2,60.2-60.2
		s60.2,26.8,60.2,60.2v12730.9C542.5,21164.5,515.6,21192.2,482.3,21192.2z"/>
	<path display="inline" fill="#009FE3" d="M712.8,8432.7H234.2c-33.3,0-60.2-26.8-60.2-60.2v-478.6c0-33.3,26.8-60.2,60.2-60.2
		h478.6c33.3,0,60.2,26.8,60.2,60.2v478.6C773,8405.8,746.2,8432.7,712.8,8432.7z M294.4,8312.3h358.3V7954H294.4V8312.3z"/>
</g>
<g id="Layer_2">
	<g>
		<path fill="#FFE400" d="M-903.9,14793.8c-35.4,0-64.1-28.7-64.1-64.1V7142.5c0-35.4,28.7-64.1,64.1-64.1
			c35.4,0,64.1,28.7,64.1,64.1v7587.3C-839.8,14765.1-868.5,14793.8-903.9,14793.8z"/>
		<path fill="#8BC53F" d="M-896.3,7221.3c-157.2,0-285.1-127.9-285.1-285.1s127.9-285.1,285.1-285.1s285.1,127.9,285.1,285.1
			S-739.1,7221.3-896.3,7221.3z M-896.3,6779.2c-86.5,0-156.9,70.4-156.9,156.9c0,86.5,70.4,156.9,156.9,156.9
			c86.5,0,156.9-70.4,156.9-156.9C-739.4,6849.6-809.8,6779.2-896.3,6779.2z"/>
		<path fill="#F9B104" d="M-899.7,6773.5c-35.4,0-64.1-28.7-64.1-64.1c0-321.4,123.8-625,348.5-854.7
			c224.4-229.3,524.4-359.8,844.8-367.2c35.4-0.9,64.7,27.2,65.5,62.6c0.8,35.4-27.2,64.7-62.6,65.6
			c-286.7,6.7-555.3,123.4-756.1,328.7c-201.2,205.6-312,477.3-312,765C-835.6,6744.8-864.3,6773.5-899.7,6773.5z"/>
		<path fill="#D6DE23" d="M476.1,5345.9c-35.4,0-64.1-28.7-64.1-64.1V1713.5c0-35.4,28.7-64.1,64.1-64.1s64.1,28.7,64.1,64.1v3568.3
			C540.2,5317.2,511.5,5345.9,476.1,5345.9z"/>
		<path fill="#B94191" d="M742.4,5845.1H232.9c-35.4,0-64.1-28.7-64.1-64.1v-509.6c0-35.4,28.7-64.1,64.1-64.1h509.6
			c35.4,0,64.1,28.7,64.1,64.1v509.6C806.5,5816.5,777.8,5845.1,742.4,5845.1z M296.9,5717h381.4v-381.4H296.9V5717z"/>
	</g>
</g>
</svg>
