<?xml version="1.0" encoding="utf-8"?>
<!-- Generator: Adobe Illustrator 17.1.0, SVG Export Plug-In . SVG Version: 6.00 Build 0)  -->
<!DOCTYPE svg PUBLIC "-//W3C//DTD SVG 1.1//EN" "http://www.w3.org/Graphics/SVG/1.1/DTD/svg11.dtd">
<svg version="1.1" id="Layer_1" xmlns="http://www.w3.org/2000/svg" xmlns:xlink="http://www.w3.org/1999/xlink" x="0px" y="0px"
	 viewBox="0 0 841.9 595.3" enable-background="new 0 0 841.9 595.3" xml:space="preserve">
<g>
	<g>
		<path fill="#FFE400" d="M374.2,325.1v-2.4l-36.7,36.7c3.7,2.5,6.8,5.7,9.2,9.4l37.2-37.2h-3.1
			C377.1,331.7,374.2,328.7,374.2,325.1z"/>
		<path fill="#FFE400" d="M477.8,237.7c-3.7-2.4-6.9-5.6-9.4-9.3l-36.9,36.9h2.4c3.6,0,6.6,3,6.6,6.6v3.1L477.8,237.7z"/>
	</g>
	<g>
		<path fill="#DEDC00" d="M62.3,242.4v110.5h13.2V242.4c-2.1,0.4-4.3,0.7-6.6,0.7C66.7,243.1,64.5,242.8,62.3,242.4z"/>
		<path fill="#DEDC00" d="M660.7,291.9c-26.7,0-48.5-21.8-48.5-48.5v-1.1c-2.1,0.4-4.3,0.7-6.5,0.7c-2.2,0-4.4-0.2-6.5-0.7v1.1
			c0,24,13.9,44.9,34,55c-20,10-33.7,30.6-34,54.4h13.1c0.3-26.4,22-47.8,48.5-47.8h4.1v-13.1H660.7z"/>
		<path fill="#DEDC00" d="M286.6,298.5c0,21.2,5.5,41.8,16,60.1c3.8-2.3,8.1-3.8,12.7-4.4c-10.2-16.8-15.5-36-15.5-55.7
			c0-59.3,48.2-107.6,107.6-107.6c19.8,0,39.1,5.4,55.9,15.7c0.5-4.6,2.1-8.9,4.3-12.8c-18.3-10.5-39-16.1-60.2-16.1
			C340.8,177.7,286.6,231.9,286.6,298.5z"/>
	</g>
	<path fill="#AFCA0B" d="M664.8,291.9h-4.1c-9.9,0-19.3,2.4-27.6,6.5c8.3,4.2,17.7,6.5,27.6,6.5h4.1V291.9z"/>
	<g>
		<path fill="#F9B104" d="M683.6,177.7h-77.9c10.7,0,20.2,5.2,26.2,13.2l0,0h51.8c61.3,0,113,49.3,113,107.6
			c0,59.3-48.2,107.6-107.6,107.6h-49.7v6.6c0,3.6-2.9,6.5-6.5,6.6c0,0,0.1,0,0.1,0h56c66.6,0,120.7-54.2,120.7-120.7
			C809.8,233,752,177.7,683.6,177.7z"/>
		<path fill="#F9B104" d="M499.4,242.8c10.1,16.7,15.5,35.9,15.5,55.7c0,59.3-48.2,107.6-107.6,107.6c-19.7,0-38.9-5.4-55.7-15.5
			c-0.6,4.6-2.1,8.9-4.4,12.7c18.2,10.5,38.9,16,60.1,16c66.6,0,120.7-54.2,120.7-120.7c0-21.1-5.5-41.8-15.9-59.9
			C508.3,240.8,504,242.3,499.4,242.8z"/>
		<path fill="#F9B104" d="M183.5,177.7H68.9c10.7,0,20.2,5.2,26.2,13.2h88.4c31.1,0,56.5,25.3,56.5,56.5c0,30.6-24.5,55.6-55,56.4
			l1.5,0.7c2.2,1.1,3.6,3.4,3.6,5.9c0,2.5-1.4,4.8-3.6,5.9l-1.3,0.7c37.7-0.9,68-31.8,68-69.6C253.1,209,221.9,177.7,183.5,177.7z"
			/>
	</g>
	<g>
		<path fill="#009FE3" d="M186.4,304.6l-52.1-26.1c-2-1-4.5-0.9-6.4,0.3c-1.9,1.2-3.1,3.3-3.1,5.6v52.1c0,2.3,1.2,4.4,3.1,5.6
			c1.1,0.7,2.3,1,3.5,1c1,0,2-0.2,2.9-0.7l52.1-26.1c2.2-1.1,3.6-3.4,3.6-5.9C190.1,308,188.6,305.7,186.4,304.6z M137.9,325.8
			v-30.8l30.8,15.4L137.9,325.8z"/>
		<path fill="#009FE3" d="M319.3,353.9c-18,0-32.7,14.7-32.7,32.7c0,18,14.7,32.7,32.7,32.7c18,0,32.7-14.7,32.7-32.7
			C351.9,368.6,337.3,353.9,319.3,353.9z M319.3,406c-10.7,0-19.5-8.7-19.5-19.5c0-10.7,8.7-19.5,19.5-19.5
			c10.7,0,19.5,8.7,19.5,19.5C338.7,397.3,330,406,319.3,406z"/>
		<path fill="#009FE3" d="M726.5,292.8l-52.1-26.1c-2-1-4.5-0.9-6.4,0.3c-1.9,1.2-3.1,3.3-3.1,5.6v52.1c0,2.3,1.2,4.4,3.1,5.6
			c1.1,0.7,2.3,1,3.5,1c1,0,2-0.2,3-0.7l52.1-26.1c2.2-1.1,3.6-3.4,3.6-5.9C730.1,296.2,728.7,293.9,726.5,292.8z M678,314.1v-30.8
			l30.8,15.4L678,314.1z"/>
	</g>
	<g>
		<path fill="#B94191" d="M433.9,265.3h-53.2c-3.6,0-6.6,3-6.6,6.6v53.2c0,3.6,3,6.6,6.6,6.6h53.2c3.6,0,6.6-3,6.6-6.6v-53.2
			C440.5,268.3,437.6,265.3,433.9,265.3z M427.3,318.5h-40v-40h40V318.5z"/>
		<path fill="#B94191" d="M95.5,352.9H42.4c-3.6,0-6.6,3-6.6,6.6v53.2c0,3.6,3,6.6,6.6,6.6h53.2c3.6,0,6.6-3,6.6-6.6v-53.2
			C102.1,355.8,99.2,352.9,95.5,352.9z M88.9,406H49v-40h40V406z"/>
		<path fill="#B94191" d="M605.6,177.7c-18,0-32.7,14.7-32.7,32.7c0,18,14.6,32.7,32.7,32.7c18,0,32.7-14.7,32.7-32.7
			C638.3,192.4,623.6,177.7,605.6,177.7z M605.6,229.9c-10.7,0-19.5-8.7-19.5-19.5c0-10.7,8.7-19.5,19.5-19.5
			c10.7,0,19.5,8.7,19.5,19.5C625.1,221.1,616.4,229.9,605.6,229.9z"/>
	</g>
	<g>
		<path fill="#E6332A" d="M68.9,177.7c-18,0-32.7,14.7-32.7,32.7c0,18,14.7,32.7,32.7,32.7c18,0,32.7-14.7,32.7-32.7
			C101.6,192.4,87,177.7,68.9,177.7z M68.9,229.9c-10.7,0-19.5-8.7-19.5-19.5c0-10.7,8.7-19.5,19.5-19.5c10.7,0,19.5,8.7,19.5,19.5
			C88.4,221.1,79.7,229.9,68.9,229.9z"/>
		<path fill="#E6332A" d="M495.7,177.7c-18,0-32.7,14.7-32.7,32.7c0,18,14.6,32.7,32.7,32.7s32.7-14.7,32.7-32.7
			C528.3,192.4,513.7,177.7,495.7,177.7z M495.7,229.9c-10.7,0-19.5-8.7-19.5-19.5c0-10.7,8.7-19.5,19.5-19.5s19.5,8.7,19.5,19.5
			C515.1,221.1,506.4,229.9,495.7,229.9z"/>
		<path fill="#E6332A" d="M632.7,352.9h-53.2c-3.6,0-6.6,3-6.6,6.6v53.2c0,3.6,3,6.6,6.6,6.6h53.2c3.6,0,6.6-3,6.6-6.6v-53.2
			C639.3,355.8,636.4,352.9,632.7,352.9z M626.1,406h-40v-40h40V406z"/>
	</g>
</g>
</svg>
