<?xml version="1.0" encoding="utf-8"?>
<!-- Generator: Adobe Illustrator 17.1.0, SVG Export Plug-In . SVG Version: 6.00 Build 0)  -->
<!DOCTYPE svg PUBLIC "-//W3C//DTD SVG 1.1//EN" "http://www.w3.org/Graphics/SVG/1.1/DTD/svg11.dtd">
<svg version="1.1" xmlns="http://www.w3.org/2000/svg" xmlns:xlink="http://www.w3.org/1999/xlink" x="0px" y="0px"
	 viewBox="0 0 831.1 8544.9" enable-background="new 0 0 831.1 8544.9" xml:space="preserve">
<g id="Layer_1" display="none">
	
		<image display="inline" overflow="visible" width="375" height="7673" xlink:href="line-all.png"  transform="matrix(1 0 0 1 176.2172 -457.4813)">
	</image>
</g>
<g id="Layer_2">
	
		<circle fill="none" stroke="#E6332A" stroke-width="13" stroke-linecap="round" stroke-linejoin="round" stroke-miterlimit="10" cx="186.3" cy="8343.5" r="26"/>
	
		<polygon fill="none" stroke="#E6332A" stroke-width="13" stroke-linecap="round" stroke-linejoin="round" stroke-miterlimit="10" points="
		208.9,2122.2 156.9,2122.2 182.9,2174.1 	"/>
	
		<line fill="none" stroke="#D6DE23" stroke-width="13" stroke-linecap="round" stroke-linejoin="round" stroke-miterlimit="10" x1="379.6" y1="136.6" x2="379.6" y2="973.7"/>
	<path fill="none" stroke="#009FE3" stroke-width="13" stroke-linecap="round" stroke-linejoin="round" stroke-miterlimit="10" d="
		M184.4,3447.7c0-100.7,81.6-182.3,182.3-182.3s182.3,81.6,182.3,182.3v1168.8"/>
	<path fill="none" stroke="#F9B104" stroke-width="13" stroke-linecap="round" stroke-linejoin="round" stroke-miterlimit="10" d="
		M185.1,1174.5c0-93.9,72.1-170.2,165.4-172.4"/>
	
		<path fill="none" stroke="#EC1C24" stroke-width="16.8" stroke-linecap="round" stroke-linejoin="round" stroke-miterlimit="10" d="
		M449.5,4831.5"/>
	<path fill="none" stroke="#FFE400" stroke-width="13" stroke-linecap="round" stroke-linejoin="round" stroke-miterlimit="10" d="
		M549.2,4667.8c0,95.7-77.6,173.3-173.3,173.3"/>
	<path fill="none" stroke="#F9B104" stroke-width="13" stroke-linecap="round" stroke-linejoin="round" stroke-miterlimit="10" d="
		M549.2,5014.5c0-95.7-77.6-173.3-173.3-173.3"/>
	
		<line fill="none" stroke="#F9B104" stroke-width="13" stroke-linecap="round" stroke-linejoin="round" stroke-miterlimit="10" x1="550.8" y1="5069.2" x2="550.8" y2="5841.4"/>
	<path fill="none" stroke="#FFE400" stroke-width="13" stroke-linecap="round" stroke-linejoin="round" stroke-miterlimit="10" d="
		M552.8,5842.1c0-100.9-81.8-182.7-182.7-182.7s-182.7,81.8-182.7,182.7v1188.4"/>
	
		<polygon fill="none" stroke="#B94191" stroke-width="13" stroke-linecap="round" stroke-linejoin="round" stroke-miterlimit="10" points="
		405.4,974.9 353.7,975.9 353.7,1027.6 405.4,1026.6 	"/>
	
		<rect x="322.8" y="4818" fill="none" stroke="#B94191" stroke-width="13" stroke-linecap="round" stroke-linejoin="round" stroke-miterlimit="10" width="50.2" height="50.2"/>
	
		<polygon fill="none" stroke="#26A9E0" stroke-width="13" stroke-linecap="round" stroke-linejoin="round" stroke-miterlimit="10" points="
		405.6,84.6 353.6,84.6 379.6,136.6 	"/>
	
		<polygon fill="none" stroke="#8BC53F" stroke-width="13" stroke-linecap="round" stroke-linejoin="round" stroke-miterlimit="10" points="
		574.5,4617.3 524,4617.3 549.2,4667.8 	"/>
	
		<polygon fill="none" stroke="#B94191" stroke-width="13" stroke-linecap="round" stroke-linejoin="round" stroke-miterlimit="10" points="
		573.5,5840.1 532.2,5840.1 552.8,5881.4 	"/>
	
		<circle fill="none" stroke="#8BC53F" stroke-width="13" stroke-linecap="round" stroke-linejoin="round" stroke-miterlimit="10" cx="184.4" cy="1199.6" r="26"/>
	
		<circle fill="none" stroke="#E6332A" stroke-width="13" stroke-linecap="round" stroke-linejoin="round" stroke-miterlimit="10" cx="551.2" cy="5042.7" r="25.2"/>
	
		<line fill="none" stroke="#009FE3" stroke-width="13" stroke-linecap="round" stroke-linejoin="round" stroke-miterlimit="10" x1="183.5" y1="2175" x2="183.5" y2="3451.3"/>
	<path fill="#009FE3" d="M213.3,7088.5h-51.7c-3.6,0-6.5-2.9-6.5-6.5v-51.7c0-3.6,2.9-6.5,6.5-6.5h51.7c3.6,0,6.5,2.9,6.5,6.5v51.7
		C219.8,7085.6,216.9,7088.5,213.3,7088.5z M168.2,7075.5h38.7v-38.7h-38.7V7075.5z"/>
	
		<line fill="none" stroke="#FFE400" stroke-width="13" stroke-linecap="round" stroke-linejoin="round" stroke-miterlimit="10" x1="186.3" y1="7082.8" x2="186.3" y2="8317.5"/>
	
		<rect x="157.8" y="3451.9" fill="none" stroke="#B94191" stroke-width="13" stroke-linecap="round" stroke-linejoin="round" stroke-miterlimit="10" width="50.2" height="50.2"/>
	
		<line fill="none" stroke="#FFE400" stroke-width="13" stroke-linecap="round" stroke-linejoin="round" stroke-miterlimit="10" x1="184.4" y1="2119.2" x2="184.4" y2="1226.6"/>
</g>
</svg>
