<?xml version="1.0" encoding="utf-8"?>
<!-- Generator: Adobe Illustrator 17.1.0, SVG Export Plug-In . SVG Version: 6.00 Build 0)  -->
<!DOCTYPE svg PUBLIC "-//W3C//DTD SVG 1.1//EN" "http://www.w3.org/Graphics/SVG/1.1/DTD/svg11.dtd">
<svg version="1.1" id="Layer_1" xmlns="http://www.w3.org/2000/svg" xmlns:xlink="http://www.w3.org/1999/xlink" x="0px" y="0px"
	 viewBox="0 0 841.9 1128" enable-background="new 0 0 841.9 1128" xml:space="preserve">
<path fill="#FFE400" d="M198.1,321.4c-3.6,0-6.5-2.9-6.5-6.5V-704.7c0-3.6,2.9-6.5,6.5-6.5s6.5,2.9,6.5,6.5V314.9
	C204.6,318.5,201.7,321.4,198.1,321.4z"/>
<path fill="#009FE3" d="M671.7,1446.4c-3.6,0-6.5-2.9-6.5-6.5V314.9c0-61.5-24-119.4-67.5-162.9c-43.5-43.5-101.3-67.5-162.9-67.5
	s-119.4,24-162.9,67.5s-67.5,101.3-67.5,162.9c0,3.6-2.9,6.5-6.5,6.5s-6.5-2.9-6.5-6.5c0-65,25.3-126.1,71.3-172
	c46-46,107.1-71.3,172-71.3S561,96.9,607,142.8c46,46,71.3,107.1,71.3,172v1125.1C678.2,1443.5,675.3,1446.4,671.7,1446.4z"/>
<path fill="#E6332A" d="M197.6,376.3c-2.5,0-4.7-1.4-5.8-3.6l-26-52c-1-2-0.9-4.4,0.3-6.3c1.2-1.9,3.3-3.1,5.5-3.1h52
	c2.3,0,4.3,1.2,5.5,3.1c1.2,1.9,1.3,4.3,0.3,6.3l-26,52C202.4,375,200.1,376.3,197.6,376.3z M182.2,324.4l15.5,30.9l15.5-30.9H182.2
	z"/>
</svg>
