<?xml version="1.0" encoding="utf-8"?>
<!-- Generator: Adobe Illustrator 17.1.0, SVG Export Plug-In . SVG Version: 6.00 Build 0)  -->
<!DOCTYPE svg PUBLIC "-//W3C//DTD SVG 1.1//EN" "http://www.w3.org/Graphics/SVG/1.1/DTD/svg11.dtd">
<svg version="1.1" id="Layer_2" xmlns="http://www.w3.org/2000/svg" xmlns:xlink="http://www.w3.org/1999/xlink" x="0px" y="0px"
	 viewBox="0 0 841.9 1128" enable-background="new 0 0 841.9 1128" xml:space="preserve">
<path fill="#009FE3" d="M668.7,333.4c-3.6,0-6.5-2.9-6.5-6.5V-798.1c0-61.5-24-119.4-67.5-162.9c-43.5-43.5-101.3-67.5-162.9-67.5
	s-119.4,24-162.9,67.5s-67.5,101.3-67.5,162.9c0,3.6-2.9,6.5-6.5,6.5s-6.5-2.9-6.5-6.5c0-65,25.3-126.1,71.3-172
	c46-46,107.1-71.3,172-71.3s126.1,25.3,172,71.3c46,46,71.3,107.1,71.3,172V326.9C675.2,330.5,672.3,333.4,668.7,333.4z"/>
<path fill="#FFE400" d="M490.3,567.9c-3.6,0-6.5-2.9-6.5-6.5s2.9-6.5,6.5-6.5c94.8,0,172-77.2,172-172c0-3.6,2.9-6.5,6.5-6.5
	s6.5,2.9,6.5,6.5C675.2,484.9,592.3,567.9,490.3,567.9z"/>
<path fill="#F9B104" d="M668.7,746.4c-3.6,0-6.5-2.9-6.5-6.5c0-94.8-77.2-172-172-172c-3.6,0-6.5-2.9-6.5-6.5s2.9-6.5,6.5-6.5
	c102,0,185,83,185,185C675.2,743.5,672.3,746.4,668.7,746.4z"/>
<path fill="#DEDC00" d="M668.7,1657.5c-3.6,0-6.5-2.9-6.5-6.5V799c0-3.6,2.9-6.5,6.5-6.5s6.5,2.9,6.5,6.5V1651
	C675.2,1654.6,672.3,1657.5,668.7,1657.5z"/>
<path fill="#B94191" d="M487.3,595.7h-51.7c-3.6,0-6.5-2.9-6.5-6.5v-51.7c0-3.6,2.9-6.5,6.5-6.5h51.7c3.6,0,6.5,2.9,6.5,6.5v51.7
	C493.8,592.8,490.8,595.7,487.3,595.7z M442.1,582.7h38.7V544h-38.7V582.7z"/>
<path fill="#95C11F" d="M668.7,389.4c-2.5,0-4.7-1.4-5.8-3.6l-26-52c-1-2-0.9-4.4,0.3-6.3c1.2-1.9,3.3-3.1,5.5-3.1h52
	c2.3,0,4.3,1.2,5.5,3.1c1.2,1.9,1.3,4.3,0.3,6.3l-26,52C673.5,388,671.2,389.4,668.7,389.4z M653.3,337.4l15.5,30.9l15.5-30.9H653.3
	z"/>
<path fill="#E6332A" d="M668.7,801.5c-17.9,0-32.5-14.6-32.5-32.5s14.6-32.5,32.5-32.5s32.5,14.6,32.5,32.5S686.7,801.5,668.7,801.5
	z M668.7,749.5c-10.8,0-19.5,8.7-19.5,19.5s8.7,19.5,19.5,19.5s19.5-8.7,19.5-19.5S679.5,749.5,668.7,749.5z"/>
</svg>
