<?xml version="1.0" encoding="utf-8"?>
<!-- Generator: Adobe Illustrator 17.1.0, SVG Export Plug-In . SVG Version: 6.00 Build 0)  -->
<!DOCTYPE svg PUBLIC "-//W3C//DTD SVG 1.1//EN" "http://www.w3.org/Graphics/SVG/1.1/DTD/svg11.dtd">
<svg version="1.1" id="Layer_2" xmlns="http://www.w3.org/2000/svg" xmlns:xlink="http://www.w3.org/1999/xlink" x="0px" y="0px"
	 viewBox="90 -50.5 56 209" enable-background="new 90 -50.5 56 209" xml:space="preserve">
<path fill="#009FE3" d="M122,29.6c-0.3,0-0.6-0.3-0.6-0.6v-99.7c0-5.5-2.1-10.6-6-14.4c-3.9-3.9-9-6-14.4-6c-5.5,0-10.6,2.1-14.4,6
	s-6,9-6,14.4c0,0.3-0.3,0.6-0.6,0.6c-0.3,0-0.6-0.3-0.6-0.6c0-5.8,2.2-11.2,6.3-15.2c4.1-4.1,9.5-6.3,15.2-6.3
	c5.8,0,11.2,2.2,15.2,6.3c4.1,4.1,6.3,9.5,6.3,15.2V29C122.5,29.3,122.3,29.6,122,29.6z"/>
<path fill="#FFE400" d="M106.1,50.3c-0.3,0-0.6-0.3-0.6-0.6c0-0.3,0.3-0.6,0.6-0.6c8.4,0,15.2-6.8,15.2-15.2c0-0.3,0.3-0.6,0.6-0.6
	c0.3,0,0.6,0.3,0.6,0.6C122.5,43,115.2,50.3,106.1,50.3z"/>
<path fill="#F9B104" d="M122,66.2c-0.3,0-0.6-0.3-0.6-0.6c0-8.4-6.8-15.2-15.2-15.2c-0.3,0-0.6-0.3-0.6-0.6c0-0.3,0.3-0.6,0.6-0.6
	c9,0,16.4,7.4,16.4,16.4C122.5,65.9,122.3,66.2,122,66.2z"/>
<path fill="#DEDC00" d="M122,327c-0.3,0-0.6-0.3-0.6-0.6V70.8c0-0.3,0.3-0.6,0.6-0.6s0.6,0.3,0.6,0.6v255.5
	C122.5,326.7,122.3,327,122,327z"/>
<path fill="#B94191" d="M105.9,52.8h-4.6c-0.3,0-0.6-0.3-0.6-0.6v-4.6c0-0.3,0.3-0.6,0.6-0.6h4.6c0.3,0,0.6,0.3,0.6,0.6v4.6
	C106.5,52.6,106.2,52.8,105.9,52.8z M101.9,51.7h3.4v-3.4h-3.4V51.7z"/>
<path fill="#95C11F" d="M122,34.5c-0.2,0-0.4-0.1-0.5-0.3l-2.3-4.6c-0.1-0.2-0.1-0.4,0-0.6c0.1-0.2,0.3-0.3,0.5-0.3h4.6
	c0.2,0,0.4,0.1,0.5,0.3c0.1,0.2,0.1,0.4,0,0.6l-2.3,4.6C122.4,34.4,122.2,34.5,122,34.5z M120.6,29.9l1.4,2.7l1.4-2.7H120.6z"/>
<path fill="#E6332A" d="M122,71.1c-1.6,0-2.9-1.3-2.9-2.9s1.3-2.9,2.9-2.9s2.9,1.3,2.9,2.9S123.6,71.1,122,71.1z M122,66.4
	c-1,0-1.7,0.8-1.7,1.7s0.8,1.7,1.7,1.7s1.7-0.8,1.7-1.7S122.9,66.4,122,66.4z"/>
</svg>
