<?xml version="1.0" encoding="utf-8"?>
<!-- Generator: Adobe Illustrator 17.1.0, SVG Export Plug-In . SVG Version: 6.00 Build 0)  -->
<!DOCTYPE svg PUBLIC "-//W3C//DTD SVG 1.1//EN" "http://www.w3.org/Graphics/SVG/1.1/DTD/svg11.dtd">
<svg version="1.1" id="Layer_2" xmlns="http://www.w3.org/2000/svg" xmlns:xlink="http://www.w3.org/1999/xlink" x="0px" y="0px"
	 viewBox="0 0 841.9 1520" enable-background="new 0 0 841.9 1520" xml:space="preserve">
<path fill="#B94191" d="M694.2,380.8h-51.7c-3.6,0-6.5-2.9-6.5-6.5v-51.7c0-3.6,2.9-6.5,6.5-6.5h51.7c3.6,0,6.5,2.9,6.5,6.5v51.7
	C700.7,377.9,697.8,380.8,694.2,380.8z M649,367.8h38.7v-38.7H649V367.8z"/>
<path fill="#95C11F" d="M376.1,680.8c-17.9,0-32.5-14.6-32.5-32.5c0-17.9,14.6-32.5,32.5-32.5s32.5,14.6,32.5,32.5
	C408.6,666.2,394.1,680.8,376.1,680.8z M376.1,628.8c-10.8,0-19.5,8.7-19.5,19.5s8.7,19.5,19.5,19.5c10.8,0,19.5-8.7,19.5-19.5
	S386.9,628.8,376.1,628.8z"/>
<path fill="#DEDC00" d="M668.3,328.9c-3.6,0-6.5-2.9-6.5-6.5v-665c0-3.6,2.9-6.5,6.5-6.5s6.5,2.9,6.5,6.5v665
	C674.8,326,671.9,328.9,668.3,328.9z"/>
<path fill="#F9B104" d="M376,621.8c-2.9,0-5.2-2.3-5.2-5.2c0-72.3,27.8-140.5,78.4-192.1c50.4-51.6,117.9-80.9,189.9-82.5
	c2.9-0.1,5.3,2.2,5.3,5.1c0.1,2.9-2.2,5.3-5.1,5.3c-69.3,1.6-134.2,29.8-182.7,79.4c-48.6,49.7-75.4,115.3-75.4,184.9
	C381.2,619.5,378.9,621.8,376,621.8z"/>
<path fill="#FFE400" d="M376.1,1704.4c-3.6,0-6.5-2.9-6.5-6.5V678.3c0-3.6,2.9-6.5,6.5-6.5s6.5,2.9,6.5,6.5v1019.6
	C382.6,1701.5,379.7,1704.4,376.1,1704.4z"/>
</svg>
