<?xml version="1.0" encoding="utf-8"?>
<!-- Generator: Adobe Illustrator 17.1.0, SVG Export Plug-In . SVG Version: 6.00 Build 0)  -->
<!DOCTYPE svg PUBLIC "-//W3C//DTD SVG 1.1//EN" "http://www.w3.org/Graphics/SVG/1.1/DTD/svg11.dtd">
<svg version="1.1" id="Layer_1" xmlns="http://www.w3.org/2000/svg" xmlns:xlink="http://www.w3.org/1999/xlink" x="0px" y="0px"
	 viewBox="0 0 103.7 1330.5" enable-background="new 0 0 103.7 1330.5" xml:space="preserve">
<path fill="#DEDC00" d="M51.3,636.4c-3.6,0-6.5-2.9-6.5-6.5V-35c0-3.6,2.9-6.5,6.5-6.5s6.5,2.9,6.5,6.5v665
	C57.8,633.5,54.9,636.4,51.3,636.4z"/>
<path fill="#F9B104" d="M52.1,2069.6c-3.6,0-6.5-2.9-6.5-6.5V687.8c0-3.6,2.9-6.5,6.5-6.5s6.5,2.9,6.5,6.5v1375.2
	C58.6,2066.6,55.7,2069.6,52.1,2069.6z"/>
<path fill="#009FE3" d="M77,691.3H25.3c-3.6,0-6.5-2.9-6.5-6.5v-51.7c0-3.6,2.9-6.5,6.5-6.5H77c3.6,0,6.5,2.9,6.5,6.5v51.7
	C83.5,688.4,80.6,691.3,77,691.3z M31.8,678.3h38.7v-38.7H31.8V678.3z"/>
</svg>
