<?xml version="1.0" encoding="utf-8"?>
<!-- Generator: Adobe Illustrator 17.1.0, SVG Export Plug-In . SVG Version: 6.00 Build 0)  -->
<!DOCTYPE svg PUBLIC "-//W3C//DTD SVG 1.1//EN" "http://www.w3.org/Graphics/SVG/1.1/DTD/svg11.dtd">
<svg version="1.1" id="Layer_1" xmlns="http://www.w3.org/2000/svg" xmlns:xlink="http://www.w3.org/1999/xlink" x="0px" y="0px"
	 viewBox="0 0 500.1 3332" enable-background="new 0 0 500.1 3332" xml:space="preserve">
<path fill="#DEDC00" d="M251.2,1133.4c-3.6,0-6.5-2.9-6.5-6.5V-30c0-3.6,2.9-6.5,6.5-6.5s6.5,2.9,6.5,6.5v1156.9
	C257.7,1130.5,254.8,1133.4,251.2,1133.4z"/>
<path fill="#FFE400" d="M251.2,3217.2c-4.6,0-8.4-3.8-8.4-8.4V1575.5c0-4.6,3.8-8.4,8.4-8.4s8.4,3.8,8.4,8.4v1633.3
	C259.6,3213.5,255.9,3217.2,251.2,3217.2z"/>
<path fill="#38A8E0" d="M284.3,1598.9c-1.3,0-2.6-0.3-3.8-0.9l-67.3-33.6c-2.8-1.4-4.6-4.3-4.6-7.5s1.8-6.1,4.6-7.5l67.3-33.6
	c2.6-1.3,5.7-1.2,8.2,0.4c2.5,1.5,4,4.2,4,7.1v67.3c0,2.9-1.5,5.6-4,7.1C287.3,1598.5,285.8,1598.9,284.3,1598.9z M235.8,1556.9
	l40.1,20v-40.1L235.8,1556.9z"/>
<path opacity="0.8" fill="#A21A5C" d="M251.2,1199.9c-23.2,0-42-18.9-42-42c0-23.2,18.9-42,42-42s42,18.9,42,42
	C293.3,1181.1,274.4,1199.9,251.2,1199.9z M251.2,1132.7c-13.9,0-25.2,11.3-25.2,25.2c0,13.9,11.3,25.2,25.2,25.2
	c13.9,0,25.2-11.3,25.2-25.2C276.5,1144,265.1,1132.7,251.2,1132.7z"/>
<path fill="#FFE400" d="M221.7,1566.2c-114,0-206.7-92.7-206.7-206.7c0-54.4,20.9-105.7,58.9-144.5c37.9-38.8,88.7-60.8,142.8-62.1
	c4.6-0.1,8.5,3.6,8.6,8.2c0.1,4.6-3.6,8.5-8.2,8.6c-49.8,1.2-96.4,21.4-131.2,57c-34.9,35.7-54.1,82.8-54.1,132.8
	c0,104.7,85.2,189.9,189.9,189.9c4.6,0,8.4,3.8,8.4,8.4S226.3,1566.2,221.7,1566.2z"/>
</svg>
