<?xml version="1.0" encoding="utf-8"?>
<!-- Generator: Adobe Illustrator 17.1.0, SVG Export Plug-In . SVG Version: 6.00 Build 0)  -->
<!DOCTYPE svg PUBLIC "-//W3C//DTD SVG 1.1//EN" "http://www.w3.org/Graphics/SVG/1.1/DTD/svg11.dtd">
<svg version="1.1" id="Layer_1" xmlns="http://www.w3.org/2000/svg" xmlns:xlink="http://www.w3.org/1999/xlink" x="0px" y="0px"
	 viewBox="0 0 12.2 225.2" enable-background="new 0 0 12.2 225.2" xml:space="preserve">
<path fill="#DEDC00" d="M6,54.8c-0.3,0-0.5-0.2-0.5-0.5v-50c0-0.3,0.2-0.5,0.5-0.5c0.3,0,0.5,0.2,0.5,0.5v50
	C6.4,54.6,6.2,54.8,6,54.8z"/>
<path fill="#F9B104" d="M6,222.6c-0.3,0-0.5-0.2-0.5-0.5V58.7c0-0.3,0.2-0.5,0.5-0.5c0.3,0,0.5,0.2,0.5,0.5v163.4
	C6.5,222.3,6.3,222.6,6,222.6z"/>
<path fill="#009FE3" d="M7.9,59H4c-0.3,0-0.5-0.2-0.5-0.5v-3.9c0-0.3,0.2-0.5,0.5-0.5h3.9c0.3,0,0.5,0.2,0.5,0.5v3.9
	C8.4,58.7,8.2,59,7.9,59z M4.5,58h2.9v-2.9H4.5V58z"/>
</svg>
